<svg height="512" viewBox="0 0 50 60" width="512" xmlns="http://www.w3.org/2000/svg"><g id="Page-1" fill="none" fill-rule="evenodd"><g id="053---Gym-Time" fill="rgb(0,0,0)" fill-rule="nonzero"><path id="Shape" d="m47 41h-2.069c-.507003-3.995865-3.9031042-6.9933065-7.931-7h-1c-.5522847 0-1 .4477153-1 1s.4477153 1 1 1h1c2.9246159.0054296 5.4201335 2.1166966 5.91 5h-1.91c-1.6568542 0-3 1.3431458-3 3v1c.0052514 1.2667854.8056491 2.3937454 2 2.816v8.184c0 2.209139 1.790861 4 4 4s4-1.790861 4-4v-8.184c1.1943509-.4222546 1.9947486-1.5492146 2-2.816v-1c0-1.6568542-1.3431458-3-3-3zm-1 15c0 1.1045695-.8954305 2-2 2s-2-.8954305-2-2v-8h4zm2-11c0 .5522847-.4477153 1-1 1h-6c-.5522847 0-1-.4477153-1-1v-1c0-.5522847.4477153-1 1-1h6c.5522847 0 1 .4477153 1 1z"/><path id="Shape" d="m43 18.266c.1228896-8.36433394-5.5327962-15.71093191-13.6503465-17.73146705-8.1175502-2.02053514-16.5572208 1.81759508-20.3696653 9.26356388-3.81244445 7.44596877-1.99272221 16.53705757 4.3920118 21.94190317.271081.2418092.6519724.3175978.9949697.197976.3429974-.1196218.5941504-.4158385.6560652-.7737815.0619149-.3579429-.075147-.7213107-.3580349-.9491945-4.8760908-4.1242089-6.83263515-10.753087-4.97750258-16.864048 1.85513258-6.11096098 7.16659348-10.53345723 13.51250258-11.250952 4.5694086-.51785703 9.14072.95542192 12.5478144 4.0440104s5.3205253 7.4938377 5.2521856 12.0919896c-.125 8.545-7.663 15.764-16.462 15.764h-11.538c-4.02789577.0066935-7.423997 3.004135-7.931 7h-2.069c-1.65685425 0-3 1.3431458-3 3v1c.00525139 1.2667854.80564914 2.3937454 2 2.816v8.184c0 2.209139 1.790861 4 4 4s4-1.790861 4-4v-8.184c1.1943509-.4222546 1.9947486-1.5492146 2-2.816v-1c0-1.6568542-1.3431458-3-3-3h-1.91c.48986653-2.8833034 2.9853841-4.9945704 5.91-5h11.538c9.868 0 18.321-8.121 18.462-17.734zm-35 37.734c0 1.1045695-.8954305 2-2 2s-2-.8954305-2-2v-8h4zm2-12v1c0 .5522847-.44771525 1-1 1h-6c-.55228475 0-1-.4477153-1-1v-1c0-.5522847.44771525-1 1-1h6c.55228475 0 1 .4477153 1 1z"/><path id="Shape" d="m25 31c7.1797017 0 13-5.8202983 13-13s-5.8202983-13-13-13-13 5.8202983-13 13c.0225079 7.170358 5.829642 12.9774921 13 13zm-8.976-6.663.816-.471c.3119508-.1773616.5049532-.5082732.5057421-.8671183s-.1907567-.6906021-.5019247-.8693336c-.3111679-.1787314-.694247-.1770325-1.0038174.0044519l-.816.471c-.5292779-1.1367544-.85844-2.356312-.973-3.605h.949c.5522847 0 1-.4477153 1-1s-.4477153-1-1-1h-.949c.11456-1.248688.4437221-2.4682456.973-3.605l.816.471c.3095704.1814844.6926495.1831833 1.0038174.0044519.311168-.1787315.5027136-.5104885.5019247-.8693336s-.1937913-.6897567-.5057421-.8671183l-.816-.471c.7244186-1.0223053 1.6166947-1.91458137 2.639-2.639l.471.816c.1773616.3119508.5082732.5049532.8671183.5057421s.6906021-.1907567.8693336-.50192468c.1787314-.31116795.1770325-.694247-.0044519-1.00381742l-.466-.816c1.135197-.52872493 2.3530163-.8578744 3.6-.973v.949c0 .55228475.4477153 1 1 1s1-.44771525 1-1v-.949c1.2469837.1151256 2.464803.44427507 3.6.973l-.471.816c-.1814844.30957042-.1831833.69264947-.0044519 1.00381742.1787315.31116798.5104885.50271358.8693336.50192468s.6897567-.1937913.8671183-.5057421l.471-.816c1.0223053.72441863 1.9145814 1.6166947 2.639 2.639l-.816.471c-.3119508.1773616-.5049532.5082732-.5057421.8671183s.1907567.6906021.5019247.8693336c.3111679.1787314.694247.1770325 1.0038174-.0044519l.816-.471c.531004 1.1364405.8618611 2.3560108.978 3.605h-.949c-.5522847 0-1 .4477153-1 1s.4477153 1 1 1h.949c-.11456 1.248688-.4437221 2.4682456-.973 3.605l-.816-.471c-.47786-.2716903-1.0854205-.1067416-1.3602745.3693057-.2748541.4760473-.1139391 1.0846885.3602745 1.3626943l.816.471c-.7244186 1.0223053-1.6166947 1.9145814-2.639 2.639l-.471-.816c-.1773616-.3119508-.5082732-.5049532-.8671183-.5057421s-.6906021.1907567-.8693336.5019247c-.1787314.3111679-.1770325.694247.0044519 1.0038174l.471.816c-1.135197.5287249-2.3530163.8578744-3.6.973v-.949c0-.5522847-.4477153-1-1-1s-1 .4477153-1 1v.949c-1.248688-.11456-2.4682456-.4437221-3.605-.973l.471-.816c.2716903-.47786.1067416-1.0854205-.3693057-1.3602745-.4760473-.2748541-1.0846885-.1139391-1.3626943.3602745l-.471.816c-1.0240911-.7239808-1.918082-1.6162811-2.644-2.639z"/><path id="Shape" d="m28.293 22.707c.3923789.3789722 1.0160848.3735524 1.4018186-.0121814s.3911536-1.0094397.0121814-1.4018186l-3.707-3.707v-5.586c0-.5522847-.4477153-1-1-1s-1 .4477153-1 1v6c.0000566.2651948.1054506.5195073.293.707z"/></g></g></svg>