<svg id="Image" height="512" viewBox="0 0 30 30" width="512" xmlns="http://www.w3.org/2000/svg"><g><path d="m26.5 24h-15.051c-.232-1.14-1.242-2-2.449-2s-2.217.86-2.449 2h-3.051c-.662 0-.661 1 0 1h3.051c.232 1.14 1.242 2 2.449 2s2.217-.86 2.449-2h15.051c.662 0 .661-1 0-1zm-17.5 2c-.827 0-1.5-.673-1.5-1.5s.673-1.5 1.5-1.5 1.5.673 1.5 1.5-.673 1.5-1.5 1.5z"/><path d="m26.5 14.5h-3.051c-.232-1.14-1.242-2-2.449-2s-2.217.86-2.449 2h-15.051c-.662 0-.661 1 0 1h15.051c.232 1.14 1.242 2 2.449 2s2.217-.86 2.449-2h3.051c.662 0 .661-1 0-1zm-5.5 2c-.827 0-1.5-.673-1.5-1.5s.673-1.5 1.5-1.5 1.5.673 1.5 1.5-.673 1.5-1.5 1.5z"/><path d="m3.5 6h8.051c.232 1.14 1.242 2 2.449 2s2.217-.86 2.449-2h10.051c.662 0 .661-1 0-1h-10.051c-.232-1.14-1.242-2-2.449-2s-2.217.86-2.449 2h-8.051c-.662 0-.661 1 0 1zm10.5-2c.827 0 1.5.673 1.5 1.5s-.673 1.5-1.5 1.5-1.5-.673-1.5-1.5.673-1.5 1.5-1.5z"/></g></svg>