<?xml version="1.0"?>
<svg xmlns="http://www.w3.org/2000/svg" viewBox="0 0 512 512" width="512" height="512"><g id="OUTLINE"><path d="M468,440H264v16H468a12,12,0,0,1,0,24H246.62378A23.88238,23.88238,0,0,0,248,472V404.84424a7.97647,7.97647,0,0,1,1.34375-4.4375l7.51514-11.2732,9.50927,5.43384,37.63233-53.7605L334.335,378.7251l9.39111-6.261,21.22315,26.52857A23.8826,23.8826,0,0,0,383.69043,408H433.376A23.998,23.998,0,0,0,480,400V376a24.02718,24.02718,0,0,0-24-24H400.5625a7.98486,7.98486,0,0,1-6.65625-3.5625l-4.35107-6.52649,5.91845-3.94568-47.02685-62.70288A26.76247,26.76247,0,0,0,352,261.937v-.94385a10.81253,10.81253,0,0,1,1.42383-5.35937l24.126-42.22217a23.87188,23.87188,0,0,0-2.0957-26.90088l-51.106-63.882A55.66135,55.66135,0,0,0,352,74.33447V72a56.06322,56.06322,0,0,0-56-56H213.75391l4.42578,17.70166A39.92405,39.92405,0,0,0,232,55.24823v30.8631a23.86959,23.86959,0,0,0,13.2666,21.46631l4.19141,2.0957,5.90478,17.71277-12.76831,25.53638-25.657,5.13122a7.97084,7.97084,0,0,1-8.22461-3.40674l-22.49414-33.74121A13.17,13.17,0,0,1,184,113.57764v-3.15528a29.211,29.211,0,0,0-46.7373-23.36914l-1.832,1.374a29.17218,29.17218,0,0,0-10.18652,32.603l.38867,1.165a29.02306,29.02306,0,0,0,14.64746,16.88916l1.81739.90869a13.30048,13.30048,0,0,1,5.90918,5.90821l30.89941,61.79931a23.9925,23.9925,0,0,0,28.05957,12.34375L240,210.606v67.321l-42.832,77.09741,7.33057,4.189L193.7168,386.168A23.88436,23.88436,0,0,0,192,395.08154v54.29468A23.98417,23.98417,0,0,0,177.37622,480H44a12,12,0,0,1,0-24H168V440H112V296h80a24.0275,24.0275,0,0,0,24-24v-8a24.0275,24.0275,0,0,0-24-24H106.833a7.96217,7.96217,0,0,1-7.42871-5.02881L75.45117,175.08643A23.88611,23.88611,0,0,0,53.167,160H39.63281a23.99941,23.99941,0,0,0-22.2832,32.91357l35.19922,88A24.17592,24.17592,0,0,0,56,286.88428V440H44a28,28,0,0,0,0,56H468a28,28,0,0,0,0-56Zm-20-72h8a8.00917,8.00917,0,0,1,8,8v24a8,8,0,0,1-16,0ZM96,440H72V295.81885A24.36067,24.36067,0,0,0,74.833,296H96ZM32.20508,186.97119A8.00061,8.00061,0,0,1,39.63281,176H53.167a7.96217,7.96217,0,0,1,7.42871,5.02881l23.95313,59.88476A23.88611,23.88611,0,0,0,106.833,256H192a8.00917,8.00917,0,0,1,8,8v8a8.00917,8.00917,0,0,1-8,8H74.833a7.96217,7.96217,0,0,1-7.42871-5.02881ZM380.59375,357.313A23.95294,23.95294,0,0,0,400.5625,368H432v24H383.69043a7.96086,7.96086,0,0,1-6.24707-3.00244l-20.354-25.44238,19.15332-12.769ZM362.96,196.50537a7.95661,7.95661,0,0,1,.69824,8.96729l-24.126,42.22168A26.84053,26.84053,0,0,0,336,260.99316v.94385a10.78012,10.78012,0,0,1-4.81055,8.98877l-5.19726,3.46484a10.774,10.774,0,0,1-11.98438,0l-5.19726-3.46484a10.78928,10.78928,0,0,1-4.81446-9.00244l-.00195-2.2627a10.77785,10.77785,0,0,1,6.00781-9.71728l.20215-.10107a26.25482,26.25482,0,0,0,11.67383-11.6792l7.31152-14.64161a23.99525,23.99525,0,0,0-7.07226-29.9331l-4.31934-3.23975a23.95156,23.95156,0,0,1-8.88379-25.021l6.92969-27.7168Zm-74.96387,65.40039A26.80439,26.80439,0,0,0,289.96143,272H256V161.88867L268.94434,136h30.80957l-6.36133,25.44678a39.91445,39.91445,0,0,0,14.80566,41.70166l4.31934,3.23974a8.00249,8.00249,0,0,1,2.3584,9.98389l-7.3125,14.64258a10.15343,10.15343,0,0,1-4.51563,4.51709l-.20215.10107a26.6841,26.6841,0,0,0-14.85156,24.0708ZM234.35645,32H296a40.04552,40.04552,0,0,1,40,40v2.33447a39.74842,39.74842,0,0,1-16,32.01514V88a40.04552,40.04552,0,0,0-40-40H256.98438A23.96081,23.96081,0,0,1,234.35645,32Zm18.0664,61.26709A7.95642,7.95642,0,0,1,248,86.11133v-23.133A40.1508,40.1508,0,0,0,256.98438,64H280a24.02718,24.02718,0,0,1,24,24v31.015l-.24609.985H269.76562L262.542,98.32666ZM149.25391,125.68262l-1.81739-.90869a13.12086,13.12086,0,0,1-6.624-7.63575l-.38867-1.165a13.19518,13.19518,0,0,1,4.60644-14.74609l1.832-1.374A13.21134,13.21134,0,0,1,168,110.42236v3.15528a29.1061,29.1061,0,0,0,2.65527,12.15045l-12.88476,6.44226A29.29158,29.29158,0,0,0,149.25391,125.68262Zm53.31543,78.97705a8.00508,8.00508,0,0,1-9.35254-4.11426L165.93359,145.9776l13.32764-6.66382,16.13818,24.2077a23.9248,23.9248,0,0,0,24.67676,10.22168L240,169.75854v24.20673ZM252.70728,288h52.90893a26.67946,26.67946,0,0,0,29.251-.29688l1.93994-1.29321,35.71924,47.62476L337.665,357.2749,313.5625,327.14673l12.99121-18.55884-13.10742-9.17578-51.81445,74.02051-42.79981-24.457ZM232,472a8.00917,8.00917,0,0,1-8,8H200a8,8,0,0,1,0-16h32Zm4.03223-80.46973A23.92032,23.92032,0,0,0,232,404.84424V448H208V395.08154a7.96259,7.96259,0,0,1,.57227-2.97119l9.95263-24.882,24.40967,13.94837Z"/><rect x="360" y="120" width="104" height="16"/><rect x="480" y="120" width="16" height="16"/><rect x="376" y="64" width="48" height="16"/><rect x="440" y="64" width="16" height="16"/><rect x="408" y="184" width="72" height="16"/><rect x="392" y="256" width="104" height="16"/></g></svg>
