<svg width="30" height="30" viewBox="0 0 30 30" fill="none" xmlns="http://www.w3.org/2000/svg">
<path d="M25.3689 27.9216L24.3602 21.3162C24.2795 20.7878 23.9686 20.3222 23.5112 20.045L20.8818 18.4506C19.5106 18.4506 10.4272 18.4506 9.12088 18.4506L6.49154 20.045C6.03408 20.3223 5.7232 20.7878 5.64249 21.3162L4.63372 27.9216C4.48315 28.9075 5.16127 29.8286 6.14817 29.9791C7.13495 30.1294 8.05726 29.4523 8.20783 28.4663L9.08926 22.6945L13.2608 20.165H16.7419L20.9135 22.6945L21.7949 28.4663C21.9456 29.4526 22.8681 30.1295 23.8546 29.9791C24.8414 29.8287 25.5194 28.9076 25.3689 27.9216Z" fill="#757575"/>
<path d="M14.9976 6.23741C16.7219 6.23741 18.1196 4.84112 18.1196 3.11871C18.1196 1.39629 16.7219 0 14.9976 0C13.2733 0 11.8755 1.39629 11.8755 3.11871C11.8755 4.84112 13.2733 6.23741 14.9976 6.23741Z" fill="#757575"/>
<path d="M29.0532 15.3294H28.2554C28.2554 13.8387 28.2554 14.1609 28.2554 12.6607C28.2554 12.3848 28.0314 12.1611 27.7552 12.1611H26.3886C26.1123 12.1611 25.8884 12.3848 25.8884 12.6607C25.8884 14.1609 25.8884 13.8386 25.8884 15.3294H24.0598C24.0326 14.5003 23.9633 12.3899 23.9374 11.6003C23.9243 11.2 23.7388 10.8248 23.4285 10.5712L20.0423 7.79524C19.6206 7.44954 19.0918 7.26057 18.5463 7.26057H11.4494C10.905 7.26057 10.3773 7.44878 9.95593 7.79325L6.55773 10.5712C6.24749 10.8249 6.06191 11.2001 6.04888 11.6003C6.02296 12.3917 5.95357 14.5042 5.92647 15.3295H4.11152C4.11152 13.8388 4.11152 14.1609 4.11152 12.6608C4.11152 12.3848 3.88757 12.1611 3.6113 12.1611H2.24472C1.96845 12.1611 1.7445 12.3848 1.7445 12.6608C1.7445 14.161 1.7445 13.8386 1.7445 15.3295H0.946773C0.423793 15.3295 0 15.753 0 16.2753C0 16.7976 0.42391 17.221 0.946773 17.221H1.7445C1.7445 18.7118 1.7445 18.3896 1.7445 19.8897C1.7445 20.1657 1.96845 20.3894 2.24472 20.3894H3.6113C3.88757 20.3894 4.11152 20.1657 4.11152 19.8897C4.11152 18.3896 4.11152 18.7119 4.11152 17.221H6.03187C6.25283 17.6618 6.70226 17.9707 7.23005 17.988C7.24559 17.9885 7.26102 17.9888 7.27645 17.9888C7.8172 17.9887 8.28868 17.6774 8.51779 17.221H21.4682C21.6973 17.6775 22.1688 17.9888 22.7096 17.9888C22.725 17.9888 22.7404 17.9885 22.756 17.988C23.2838 17.9707 23.7332 17.6617 23.9542 17.221H25.8882C25.8882 18.7118 25.8882 18.3896 25.8882 19.8897C25.8882 20.1657 26.1122 20.3894 26.3885 20.3894H27.755C28.0313 20.3894 28.2553 20.1657 28.2553 19.8897C28.2553 18.3896 28.2553 18.7119 28.2553 17.221H29.0531C29.5762 17.221 30 16.7975 30 16.2752C30 15.7529 29.5761 15.3294 29.0532 15.3294ZM8.70837 15.3294C8.7506 14.0418 8.72491 14.8252 8.80714 12.3212L10.9917 10.535V14.0999H18.971V10.5157L21.1791 12.3212C21.2483 14.4304 21.2269 13.7794 21.2779 15.3294H8.70837Z" fill="#757575"/>
</svg>
