<svg width="57" height="57" viewBox="0 0 57 57" fill="none" xmlns="http://www.w3.org/2000/svg">
<path d="M27.8058 46.6507H17.1121C14.2059 46.6507 11.8479 44.284 11.8479 41.3865V15.6135C11.8479 12.7073 14.2146 10.3493 17.1121 10.3493H27.9799C28.6324 10.3493 29.1545 9.82725 29.1545 9.17466C29.1545 8.52207 28.6324 8 27.9799 8H17.1121C12.9094 8 9.49854 11.4196 9.49854 15.6135V41.3865C9.49854 45.5891 12.9181 49 17.1121 49H27.8058C28.4584 49 28.9805 48.4779 28.9805 47.8253C28.9805 47.1727 28.4497 46.6507 27.8058 46.6507Z" fill="black"/>
<path d="M47.1572 27.6734L39.6916 20.2078C39.2304 19.7466 38.4908 19.7466 38.0297 20.2078C37.5685 20.669 37.5685 21.4086 38.0297 21.8697L43.494 27.3341H19.6615C19.0089 27.3341 18.4868 27.8562 18.4868 28.5087C18.4868 29.1613 19.0089 29.6834 19.6615 29.6834H43.494L38.0297 35.1478C37.5685 35.6089 37.5685 36.3485 38.0297 36.8097C38.2559 37.0359 38.5605 37.1577 38.8563 37.1577C39.1521 37.1577 39.4567 37.0446 39.6829 36.8097L47.1485 29.3441C47.6184 28.8742 47.6184 28.1259 47.1572 27.6734Z" fill="black"/>
</svg>
