<?xml version="1.0" encoding="UTF-8"?>
<svg xmlns="http://www.w3.org/2000/svg" id="Icons" viewBox="0 0 60 60" width="512" height="512"><path d="M58,39H56V31a3,3,0,0,0-3-3H50.53A25.335,25.335,0,0,0,51,23.4C51,14.621,44.513,8,35.91,8a13.73,13.73,0,0,0-1.459.088,11.312,11.312,0,0,1,1.883-2.979A3,3,0,0,0,32.08.879,16.464,16.464,0,0,0,29.457,4.67a6.159,6.159,0,0,0-1.906-1.612,8.66,8.66,0,0,0-5.5-.685,7.087,7.087,0,0,1-3.808-.247,1.6,1.6,0,0,0-1.428.1,1.54,1.54,0,0,0-.75,1.166,10.193,10.193,0,0,0,1.21,6.191A15.156,15.156,0,0,0,9,23.4,25.335,25.335,0,0,0,9.47,28H7a3,3,0,0,0-3,3v8H2a2,2,0,0,0-2,2v4a2,2,0,0,0,2,2H4v8a3,3,0,0,0,3,3h4a2.984,2.984,0,0,0,1.116-.22A3,3,0,0,0,15,60h4a3,3,0,0,0,3-3V47H38V57a3,3,0,0,0,3,3h4a3,3,0,0,0,2.884-2.22A2.984,2.984,0,0,0,49,58h4a3,3,0,0,0,3-3V47h2a2,2,0,0,0,2-2V41A2,2,0,0,0,58,39ZM4,45H2V41H4ZM33.494,2.293a1,1,0,1,1,1.414,1.414A15.012,15.012,0,0,0,31.3,12.159a1,1,0,0,1-1.73.507,1,1,0,0,1-.251-.787A16.92,16.92,0,0,1,33.494,2.293ZM18.011,4.173a9.664,9.664,0,0,0,4.266.187,6.755,6.755,0,0,1,4.33.461,4.254,4.254,0,0,1,1.872,2.056q-.3.788-.541,1.672A13.916,13.916,0,0,0,24.09,8a15.526,15.526,0,0,0-4.936.808A8.031,8.031,0,0,1,18.011,4.173ZM12,55a1,1,0,0,1-1,1H7a1,1,0,0,1-1-1V31a1,1,0,0,1,1-1h4a1,1,0,0,1,1,1Zm8-15V57a1,1,0,0,1-1,1H15a1,1,0,0,1-1-1V29a1,1,0,0,1,1-1h4a1,1,0,0,1,1,1Zm18,5H22V41H38Zm8-14V57a1,1,0,0,1-1,1H41a1,1,0,0,1-1-1V29a1,1,0,0,1,1-1h4a1,1,0,0,1,1,1Zm-1-5H41a3,3,0,0,0-3,3V39H22V29a3,3,0,0,0-3-3H15a3,3,0,0,0-2.884,2.22,2.952,2.952,0,0,0-.594-.167A23.77,23.77,0,0,1,11,23.4a12.929,12.929,0,0,1,8.508-12.609A13.506,13.506,0,0,1,24.09,10a11.911,11.911,0,0,1,3.407.5c-.065.375-.122.758-.166,1.152A3.007,3.007,0,0,0,30.313,15a2.966,2.966,0,0,0,2.975-2.625A14.19,14.19,0,0,1,33.7,10.21,11.79,11.79,0,0,1,35.91,10C43.373,10,49,15.761,49,23.4a23.77,23.77,0,0,1-.522,4.653,2.952,2.952,0,0,0-.594.167A3,3,0,0,0,45,26Zm9,14V55a1,1,0,0,1-1,1H49a1,1,0,0,1-1-1V31a1,1,0,0,1,1-1h4a1,1,0,0,1,1,1Zm4,5H56V41h2Z"/></svg>
