<svg id="Layer_1" enable-background="new 0 0 64 64" height="512" viewBox="0 0 64 64" width="512" xmlns="http://www.w3.org/2000/svg"><path d="m27.5 14.7v2c0 2.2 1.8 4 4 4s4-1.8 4-4v-2c0-2.2-1.8-4-4-4s-4 1.8-4 4zm2 0c0-1.1.9-2 2-2s2 .9 2 2v2c0 1.1-.9 2-2 2s-2-.9-2-2z"/><path d="m44.3 45.3c-.4.4-.3 1 .1 1.4l1.9 1.6c.2.2.9.4 1.4-.1.4-.4.3-1-.1-1.4l-1.9-1.6c-.4-.4-1-.3-1.4.1z"/><path d="m62 61h-1.2c.4-1.2.1-2.4-.9-3.2l-9.5-8.4c-.4-.4-1-.4-1.4.1-.4.4-.3 1 .1 1.4l9.5 8.4c.5.4.4.9.3 1.1-.6.8-1.3.6-1.4.5l-25.5-16.5c-.3-.2-.6-.2-.9-.1l-10 4c-.4.2-.6.5-.6.9v10.5c0 .7-.6 1.3-1.3 1.3-.6 0-1.1-.4-1.2-.9l-2.8-12.6c-.3-1 .2-2.2 1.2-2.7l8.9-4.4h12.2l3.9 3.5c.2.2.9.5 1.4-.1.4-.4.3-1-.1-1.4l-4.1-3.6 1.9-10.7 5-12.5c.7-1.4.5-3.2-.5-4.4l-7.6-9.1c-.9-1.1-2.5-1.5-3.9-.8-.9.4-2.7 2.5-1.1 4.9l5.9 7.4-3.5 8.8h-6.6l-3.5-8.8 5.9-7.4c1.4-2.5-.2-4.4-1.1-4.9-1.3-.7-2.9-.3-3.9.8l-7.6 9.1c-1 1.2-1.2 3-.6 4.4l5.1 12.6.4 2.2c.1.5.6.9 1.2.8.5-.1.9-.6.8-1.2l-.4-2.4-5.2-12.9c-.4-.7-.3-1.6.3-2.2l7.6-9.1c.4-.4 1-.6 1.5-.3.2.2 1 .9.3 1.8l-6.3 7.8c-.2.3-.3.7-.1 1l4 10c.2.4.5.6.9.6h8c.4 0 .8-.2.9-.6l4-10c.1-.3.1-.7-.1-1l-6.3-7.8c-.2-.3-.6-1.1.4-1.8.5-.3 1.1-.1 1.5.3l7.6 9.1c.5.6.6 1.5.2 2.3l-5.1 12.8-1.9 11h-10.3l-.9-4.9c-.1-.5-.6-.9-1.2-.8-.5.1-.9.6-.8 1.2l.8 4.8-8.9 4.4c-1.9.9-2.8 3-2.2 5 0 0 2.9 12.8 2.9 12.9h-2.1c-.6 0-1 .4-1 1s.4 1 1 1h28c.6 0 1-.4 1-1s-.4-1-1-1h-19.8c.2-.4.3-.8.3-1.3v-9.8l8.9-3.5 22.6 14.4h-8c-.6 0-1 .4-1 1s.4 1 1 1h16c.6 0 1-.4 1-1s-.4-1-1-1z"/><path d="m10 61h-8c-.6 0-1 .4-1 1s.4 1 1 1h8c.6 0 1-.4 1-1s-.4-1-1-1z"/></svg>